<svg xmlns="http://www.w3.org/2000/svg" xmlns:xlink="http://www.w3.org/1999/xlink" width="413.963" height="175.984" viewBox="238.33 43.508 413.963 175.984"><defs><path id="a" d="M238.33 43.508h413.963v175.984H238.33z"/></defs><clipPath id="b"><use xlink:href="#a" overflow="visible"/></clipPath><g clip-path="url(#b)"><path fill="#FDC015" d="M360.026 138.803a.778.778 0 0 0-.776.775v28.863c0 .154.078.232.078.387a.815.815 0 0 0 .698.389.811.811 0 0 0 .698-.389c.078-.077.078-.232.078-.387v-28.863a.777.777 0 0 0-.776-.775"/><path fill="#FDC015" d="M426.207 184.734L344.586 57.57c-3.646-5.664-9.621-5.664-13.268 0l-81.621 127.164c-3.646 5.664-1.086 10.396 5.664 10.396h165.181c6.829-.077 9.312-4.732 5.665-10.396m-117.233-57.646c-.31 0-1.008.154-1.862.154s-1.94-.154-2.793-.931c-2.482-2.095-1.862-4.655-1.862-4.655l1.241-.078 2.561 2.25c.233-.077.388-.154.543-.232.233-.154.466-.232.621-.465.233-.155.388-.543.543-.776a3.079 3.079 0 0 0 .078-1.706l-2.716-2.483s.078-.077.233-.155a1.25 1.25 0 0 1 .698-.232c.233-.078.698-.155 1.396-.155h.311c.854.077 2.017.31 3.414 1.552 1.552 1.396 1.474 3.414 1.629 4.268 0 .077.621.697 1.629 1.707v6.517c-3.181-2.719-5.509-4.58-5.664-4.58m10.862 32.74c.232 4.889.465 14.975.698 19.863.078 1.24-.776 3.957-2.716 4.344-.232.078-.543.078-.775.078-.311 0-.621 0-1.009-.078-1.862-.387-2.716-3.181-2.561-4.422.388-4.888.854-14.975 1.242-19.862 0-.388.155-.853.388-1.163 0-.699-.388-1.319-.698-1.707-.233-.078-.31-.232-.31-.389v-.077c0-.311.853-.543 1.939-.62h.233v-36.389l-.621-1.086.543-3.725h1.396l.543 3.725s-.465 1.086-.465 1.164v36.388c.155 0 .854 0 1.008.077 1.086.155 1.862.389 1.862.699v.077c0 .155-.078.232-.311.31-.31.389-.776 1.01-.776 1.63.235.388.39.776.39 1.163m16.759-5.586l-.311.233-.854.775-.155.155-.155.155-.155.155-.155.232-.233.311-.232.311-.233.388-.233.388-.698.232-.465-.387-.543-.466-.232-.233-.233-.232-.465-.465-.466-.467-.465-.465-.466-.465-.465-.467-.078-.077-.078-.077-.078-.155-.078-.155-.077-.155v-.542l.077-.077v-.156h.312l.078-.077.155-.077h.155l1.707-.543h.156l.078-.078.155-.078.155-.077.078-.077.155-.078.078-.078.078-.077.155-.077.155-.078.078-.077.077-.077h.078l.078-.078h.078l.078-.078.078-.077.155-.155c1.629 1.475 2.793 2.482 3.336 3.025v.311l-.16.307zm12.026.932l-.931.077-2.638-2.405c-2.017.776-2.095 2.871-2.095 3.104l2.561 2.482s-.621.389-1.552.467a2.914 2.914 0 0 1-.931.154c-.776 0-1.785-.311-2.871-1.396-1.474-1.475-1.552-4.345-1.707-4.888-.078-.311-10.707-9.776-19.241-17.069v-6.207c7.991 7.371 21.104 18.854 22.888 19.475 1.086.078 2.948-.232 4.811 1.475 2.481 2.092 1.706 4.731 1.706 4.731m3.025-15.129l-.621.62-1.319 1.63-.543.543-.621.543-.621.543-.621.543-.31.311-.388.311-.233.232-.621.621-.232.232-.621.543-.31.232-.466.466c-.465-.077-.931-.077-1.319-.077h-.233c-.465-.311-1.551-1.087-3.181-2.328l.155-.078.31-.232.311-.311.388-.388.388-.388.31-.311.388-.311.388-.311.155-.077.155-.077.465-.389.465-.388.233-.232.388-.311.388-.31.621-.467 3.414-2.637.698-.544.078-.077.078-.078.155-.154.388-.311.388-.311.388-.311.388-.311.388-.311.776-.62.776-.62.776-.621.155-.155.155-.077a5.738 5.738 0 0 0 2.25 2.637l-.31.233-.698.62-.698.621-.698.621-.621.621-.621.62-.853.781zm13.346 42.361h-.699v-4.811l-4.19-3.258-4.112 3.258v4.811h-.698c-1.707-1.396-2.871-3.568-2.871-5.975a7.592 7.592 0 0 1 4.578-6.982v-33.672c-.155-.078-.31-.155-.388-.232-1.009-.699-1.785-1.553-2.25-2.639-.311-.775-.543-1.629-.543-2.561a6.258 6.258 0 0 1 6.285-6.284c.698 0 1.396.155 2.017.311l-.31.31-.388.389-.388.388-.155.155-.155.155-.388.31-.388.311-.776.699h-.388l-1.939 2.017v2.637l1.939 1.707h2.637l1.707-1.707v-.543l.388-.311.776-.62.776-.62.776-.621.232-.232c.155.543.233 1.086.233 1.629 0 2.25-1.164 4.268-2.948 5.354v33.827c2.638 1.241 4.5 3.88 4.5 6.983 0 2.249-1.164 4.421-2.87 5.817m11.56-49.422l-.155.077-.155.077h-.93l-.155-.465-.157-.465-.232-.466-.233-.465-.078-.232-.078-.233-.233-.388-.232-.389-.233-.387-.155-.233-.155-.155-.232-.388-.233-.311-.233-.311-.31-.31-.311-.311-.155-.155-.155-.155-.311-.232-.078-.233-.078-.155-.078-.154-.078-.156-.077-.154-.078-.156-.078-.077-.078-.077-.078-.078-.078-.077-.078-.077h-.617l-.155.077h-.078l-.078.077-.232.155-.155.077-.155.078-.233.078-.232.077-.233.077-.233.078h-.389l-.155.078-.155.077h-.699l-.854.62-.854.621-.776.621-.776.62-.776.621-2.638 2.25h-.155l-1.939-1.707v-1.164l2.482-2.173.388-.387.388-.389.155-.154.155-.156.388-.388.388-.388.388-.389.388-.387.078-.078.078-.078.155-.154.775-.776v-.155l.078-.154.078-.078.078-.078.078-.077.078-.077.155-.156.078-.077.078-.077.232-.155.155-.077.155-.078.078-.466v-1.24l-.078-.155-.078-.155-.078-.154-.078-.156-.078-.154-.078-.156-.078-.154-.078-.155-.077-.155-.078-.078-.078-.077-.233-.232-.233-.155-.31-.155-.311-.077-.155-.078-.155-.078h-.388l-1.474-2.094v-.31l.078-.155.078-.155.078-.155.078-.155.078-.155.078-.155.077-.077.078-.077.078-.078.078-.078.078-.077.155-.077.155-.078.155-.077.155-.077.155-.078.155-.078.155-.077.155-.077.155-.078.233-.078.233-.077 1.784 1.784.078.156.078.154.078.155.078.155v.155l.078.155.078.154.078.156.078.154.077.156v.077l.078.077.078.078v.154l.078.078.078.078h.078l.078.077.078.077.078.078.078.078.078.077h1.09l.233.077.233.078.232.154.233.156.233.154.232.156.233.232.233.232.232.232.233.232.233.233.232.311.233.31.233.311.233.311.155.389.388.697.388.699.155.311.155.31.31.698.311.698.311.698.31.698.155.311.155.311.225.693.155.311.078.311.155.31.078.311.078.311.078.31.078.311.077.311.078.311.078.311.078.311.078.31.155.698.311.854-.003.383z"/><path d="M433.578 180.001l-15.828-24.982c.388-1.94.698-3.88.931-5.819-.233.078-3.259.543-4.189.699l-2.095-3.26h.233a2.606 2.606 0 0 1 1.009-.62l5.354-1.63c.077-1.629.155-3.181.155-4.811 0-1.474-.078-2.87-.155-4.344-.311.077-3.569 1.318-4.112 1.474-.621.233-1.784.311-2.405-1.319-.621-1.629 1.086-2.404 1.086-2.404l4.965-2.483c-.31-3.103-.854-6.129-1.552-9.077-.078.077-3.258 1.861-3.802 2.172-.543.311-1.707.621-2.56-.854-.854-1.474.698-2.561.698-2.561l4.5-3.336c-.854-2.947-1.94-5.818-3.104-8.611 0 0-2.871 2.404-3.414 2.793-.466.388-1.552.931-2.716-.389-1.086-1.318.233-2.638.233-2.638l3.879-4.034c-1.396-2.716-2.871-5.432-4.578-7.991-.078.155-2.405 2.87-2.871 3.336-.388.466-1.396 1.164-2.716.077-1.319-1.086-.232-2.638-.232-2.638l3.103-4.655c-1.784-2.482-3.801-4.811-5.819-7.061-.155.311-1.939 3.26-2.25 3.803-.31.543-1.164 1.396-2.638.543s-.698-2.561-.698-2.561l2.25-5.121c-2.173-2.095-4.578-4.111-6.983-5.974-.078.31-1.319 3.569-1.552 4.112-.233.62-.931 1.551-2.561 1.008-1.629-.62-1.086-2.404-1.086-2.404l1.319-5.432a81.008 81.008 0 0 0-7.914-4.655c0 .155-.698 3.724-.776 4.345-.155.621-.621 1.707-2.328 1.396s-1.474-2.172-1.474-2.172l.388-5.586c-2.948-1.319-5.974-2.406-9.078-3.337v6.13l-10.086-15.673c-8.457-13.268-20.638-13.268-29.095 0l-6.052 9.466-.543-.078c-2.948.854-5.819 1.939-8.612 3.104 0 0 2.405 2.871 2.871 3.414.388.465.931 1.552-.388 2.715-1.319 1.087-2.638-.232-2.638-.232l-4.035-3.879c-2.715 1.396-5.431 2.871-7.991 4.578.155.077 2.871 2.404 3.336 2.87.465.388 1.164 1.396.078 2.716-1.086 1.318-2.638.232-2.638.232l-4.655-3.104c-2.482 1.785-4.81 3.802-7.06 5.818.31.156 3.258 1.94 3.802 2.25.543.311 1.396 1.164.543 2.639s-2.561.698-2.561.698l-5.121-2.25c-2.095 2.173-4.112 4.577-5.974 6.983.233.076 3.569 1.318 4.112 1.551.621.232 1.552.932 1.008 2.561-.621 1.629-2.405 1.086-2.405 1.086l-5.431-1.318a81.008 81.008 0 0 0-4.655 7.914c.078 0 3.724.697 4.345.775.621.155 1.707.621 1.396 2.328-.31 1.706-2.172 1.474-2.172 1.474l-5.586-.388c-1.319 2.947-2.405 5.974-3.336 9.077h4.422c.621 0 1.785.311 1.785 2.017 0 1.707-1.862 1.863-1.862 1.863l-5.586.62a87.22 87.22 0 0 0-1.629 9c.233-.077 3.724-.62 4.345-.776.621-.077 1.629 0 2.017 1.319l6.905.776-1.164 1.861-6.207-.697c-.465.465-1.009.62-1.009.62l-5.353 1.63c-.078 1.629-.155 3.181-.155 4.81 0 1.474.078 2.871.155 4.345.31-.077 3.569-1.318 4.112-1.474s1.474-.311 2.095.776l-2.328 3.646-3.569 1.783c.155 1.087.233 2.096.388 3.182l-17.845 28.164c-8.457 13.268-2.482 24.129 13.268 24.129h39.724l-.466 2.018a81.329 81.329 0 0 0 7.914 4.655c0-.077.698-3.725.776-4.345.078-.621.621-1.707 2.328-1.396 1.707.311 1.474 2.172 1.474 2.172l-.388 5.586c2.948 1.319 5.974 2.406 9.078 3.336v-4.422c0-.621.311-1.784 2.017-1.784 1.707 0 1.862 1.862 1.862 1.862l.621 5.586a87.49 87.49 0 0 0 9 1.629c-.078-.232-.621-3.724-.776-4.345-.078-.62 0-1.63 1.319-2.017l.931-8.535h1.94l-1.009 8.922c.465.467.621 1.01.621 1.01l1.629 5.354c1.629.077 3.181.154 4.811.154 1.474 0 2.871-.077 4.345-.154-.078-.311-1.319-3.569-1.474-4.113-.233-.62-.311-1.783 1.319-2.404s2.405 1.086 2.405 1.086l2.482 4.966c3.104-.311 6.052-.854 9.078-1.552 0-.078-1.862-3.259-2.172-3.802-.31-.544-.621-1.707.854-2.561s2.561.698 2.561.698l3.336 4.5c2.948-.854 5.819-1.939 8.612-3.104 0 0-2.405-2.871-2.793-3.414-.388-.465-.931-1.551.388-2.715 1.319-1.086 2.638.232 2.638.232l4.035 3.879c2.715-1.396 5.431-2.87 7.991-4.577a186.414 186.414 0 0 0-3.026-2.56H420c15.982.235 21.957-10.627 13.578-23.895m-13.035 15.052H255.362c-6.75 0-9.311-4.654-5.664-10.318L331.319 57.57c3.647-5.664 9.621-5.664 13.268 0l81.621 127.164c3.646 5.664 1.163 10.319-5.665 10.319"/><path d="M333.724 150.519l-.155.155-.077.077-.078.077h-.078l-.078.078h-.078l-.078.078-.078.077-.155.077-.155.078-.078.078-.078.077-.155.077-.078.078-.388.232-.155.078-.078.077h-.156l-1.707.543h-.155l-.078.077-.078.078h-.312v.155l-.078.077v.62l.078.155.078.155.078.154.078.078.078.078.465.465.466.466.465.466.465.465.466.466.233.233.232.232.543.465.543.466.698-.232.233-.388.232-.389.233-.311.233-.311.155-.232.155-.154.155-.156.155-.154.854-.776.31-.232.466-.388v-.311c-.847-.772-2.011-1.858-3.563-3.254m19.785-12.337l.698-.62.698-.62.698-.621.311-.232c-1.009-.699-1.785-1.553-2.25-2.639l-.155.078-.155.154-.776.621-.776.621-.776.621-.388.31-.388.311-.388.311-.388.31-.388.311-.155.155-.078.077-.078.078-.698.543-3.414 2.639-.621.465-.388.311-.388.311-.233.232-.466.389-.465.387-.155.078-.155.078-.388.311-.388.31-.311.311-.388.388-.388.389-.311.31-.31.233-.155.077c1.629 1.319 2.638 2.095 3.181 2.327h.232c.388 0 .776 0 1.319.078l.465-.466.311-.232.621-.544.233-.232.621-.62.232-.233.388-.311.311-.31.621-.544.621-.543.621-.543.543-.543 1.319-1.629.621-.621.621-.621.621-.62.854-.781z"/><path d="M363.362 169.449v-33.827c1.784-1.087 2.948-3.104 2.948-5.354 0-.543-.078-1.087-.233-1.63l-.232.233-.776.62-.775.621-.776.621-.388.311v.543l-1.707 1.707h-2.638l-1.939-1.707v-2.638l1.939-2.018h.388l.776-.697.388-.311.388-.311.155-.155.155-.155.388-.388.388-.388.31-.311c-.621-.232-1.319-.311-2.017-.311a6.26 6.26 0 0 0-6.285 6.285c0 .931.155 1.784.543 2.561a5.726 5.726 0 0 0 2.25 2.637c.155.078.232.156.388.233v33.673c-2.638 1.163-4.578 3.879-4.578 6.982 0 2.404 1.086 4.577 2.871 5.975h.698v-4.811l4.112-3.26 4.19 3.26v4.811h.699c1.784-1.397 2.871-3.57 2.871-5.975-.001-2.947-1.863-5.584-4.501-6.826m-2.56-1.008c0 .154-.078.232-.078.387a.815.815 0 0 1-.698.389.813.813 0 0 1-.698-.389c-.078-.077-.078-.232-.078-.387v-28.863c0-.465.388-.775.776-.775.466 0 .776.389.776.775v28.863zm-46.164-43.215c-1.009-.931-1.629-1.552-1.629-1.707-.233-.854-.078-2.87-1.629-4.268-1.396-1.241-2.638-1.552-3.414-1.552h-.311c-.621 0-1.086.078-1.396.155l-.698.233a.97.97 0 0 0-.233.154l2.716 2.483a3.068 3.068 0 0 1-.078 1.706c-.155.233-.311.621-.543.776-.232.155-.388.311-.621.466-.155.077-.388.154-.543.232l-2.561-2.25-1.241.078s-.621 2.482 1.862 4.654c.931.776 1.94.932 2.793.932s1.552-.155 1.862-.155h.078c.155 0 2.405 1.939 5.664 4.655v-6.595h-.078zm32.354 25.215c-1.94-1.707-3.724-1.396-4.811-1.475-1.862-.621-14.896-12.104-22.888-19.475v6.207c8.457 7.371 19.164 16.759 19.241 17.069.078.543.233 3.413 1.707 4.888 1.086 1.086 2.095 1.396 2.871 1.396.31 0 .621-.077.931-.154.931-.078 1.552-.467 1.552-.467l-2.561-2.482c0-.232.078-2.404 2.095-3.104l2.638 2.405.931-.077c-.077.002.698-2.637-1.706-4.731"/><path d="M376.242 131.354l-.078-.309-.078-.311-.077-.388-.078-.311-.155-.387-.078-.31-.077-.311-.078-.31-.155-.389-.077-.309-.156-.311-.077-.388-.31-.621-.078-.387-.155-.311-.311-.698-.31-.621-.31-.698-.311-.621-.232-.387-.156-.311-.387-.698-.389-.621-.155-.388-.232-.31-.156-.31-.232-.311-.233-.31-.233-.233-.155-.233-.233-.232-.232-.234-.233-.232-.233-.155-.233-.156-.233-.154-.232-.156-.233-.078-.233-.077h-.233l-.077.077h-.466l-.077-.077h-.156l-.077-.078h-.078l-.078-.077h-.077l-.077-.077-.078-.078-.078-.078-.077-.077-.078-.078v-.078h-.077l-.078-.155v-.077l-.078-.078v-.077l-.077-.078-.078-.156-.077-.154v-.155l-.078-.156v-.078l-.077-.077v-.155l-.078-.156-.078-.155v-.232l-1.784-1.785-.233.078h-.155l-.233.078-.155.077-.233.077-.155.078-.155.078-.156.078-.077.077-.155.078-.155.077-.078.077-.077.078-.156.078-.077.078-.078.155-.077.077-.078.155-.077.156-.078.155-.078.155-.077.155v.311l1.396 2.094h.233l.155.078h.233l.155.078.311.077.31.155.233.156.232.232.156.077.077.156.077.078.078.155.078.154.077.078.078.156.078.155v.155l.077.155.078.155v1.863l-.155.077-.156.077-.233.155-.077.078-.077.078-.156.232-.077.078-.078.078-.077.078v.077l-.078.232-.078.078v.078l-.776.776-.154.232-.078.078-.155.077-.389.388-.31.389-.388.388-.387.387-.233.156-.156.155-.387.387-.389.388-2.482 2.173v1.163l1.94 1.707h.155l2.637-2.25.776-.697.776-.621.776-.621.854-.698.776-.621h.465l.155-.078h.155l.156-.077h.233l.077-.077h.155l.078-.078h.077l.233-.078.233-.077.233-.156.232-.078.156-.077.077-.077.31-.078v-.077h.078l.155-.078.156-.078h.31l.155.078h.078l.077.078.078.077.155.078.077.154.078.078v.156l.078.155.077.155.078.155v.233l.31.232.155.156.155.155.233.232.31.311.233.31.311.389.232.309.078.234.155.154.233.389.232.388.233.465.078.233.078.155.233.466.232.465.155.466.156.543h.931l.154-.078h.156l.077-.078-.233-.853zm-55.63 25.372c0-.078 0-.078 0 0 0-.388-.776-.621-1.94-.776-.155 0-.776-.077-1.008-.077v-36.388l.465-1.164-.543-3.725h-1.396l-.543 3.725.621 1.086v36.389h-.233c-1.164.077-1.939.31-1.939.62v.077c0 .156.077.233.31.389.311.388.698 1.008.698 1.707-.155.311-.31.775-.388 1.163-.388 4.888-.854 14.975-1.242 19.784-.155 1.242.621 4.035 2.561 4.423.311.077.621.077 1.009.077.31 0 .543 0 .775-.077 1.94-.388 2.793-3.104 2.716-4.345-.233-4.888-.466-14.975-.698-19.862 0-.388-.155-.853-.311-1.163 0-.699.466-1.319.776-1.63.155-.001.31-.156.31-.233"/><path fill="#080504" d="M462.207 111.104h3.568V80.07h.778l8.765 29.793h4.735l8.765-29.793h.7v31.034h3.568v-34.37h-6.594l-8.846 29.483-8.689-29.483h-6.75zm47.715-31.034h1.475l4.889 18.854h-11.328l4.964-18.854zm-11.869 31.034h3.801l2.404-8.767h12.881l2.404 8.767h3.803l-8.846-34.37h-7.525l-8.922 34.37zm47.482 0h4.268l-9.854-17.378 9.311-16.992h-4.268l-8.303 15.672-4.654.233V76.734h-3.803v34.37h3.803V95.898l4.654-.078zm8.768 0h19.24v-3.413h-15.439V95.277h12.646v-3.336h-12.646V80.07h15.439v-3.336h-19.24zm42.904-23.973c0 5.043-2.018 7.447-6.439 7.447h-7.525V79.992h7.525c4.421.078 6.439 2.406 6.439 7.139zm.621 23.973h4.111l-6.518-13.888c3.26-1.164 5.742-3.725 5.742-10.009 0-7.216-3.568-10.396-10.318-10.396h-11.406v34.37h3.803V97.992h8.457l6.129 13.112zm12.414-23.198l.154-11.328h-3.568l.154 11.328zm25.061-10.629s-5.277-1.009-9.156-1.009c-6.828 0-10.551 2.948-10.551 9.543 0 5.819 3.414 7.759 9.775 9.311 4.654 1.009 6.982 2.173 6.982 6.362 0 4.5-2.018 6.827-6.439 6.827-3.258 0-9.621-.698-9.621-.698l-.232 3.104s5.975.932 9.854.932c7.061 0 10.318-3.647 10.318-10.553 0-6.129-3.104-7.836-9.232-9.388-5.197-1.319-7.447-2.173-7.447-6.284 0-4.112 2.25-5.742 6.826-5.742 3.336 0 8.768.699 8.768.699l.155-3.104zm-163.164 54.077h1.473l4.889 18.854h-11.328l4.966-18.854zm-11.871 31.035h3.801l2.406-8.767h12.879l2.404 8.767h3.803l-8.846-34.37h-7.525l-8.922 34.37zm47.871-33.827s-5.277-1.009-9.156-1.009c-6.826 0-10.551 2.948-10.551 9.543 0 5.819 3.414 7.759 9.775 9.311 4.654 1.009 6.982 2.172 6.982 6.362 0 4.5-2.018 6.827-6.439 6.827-3.258 0-9.621-.697-9.621-.697l-.232 3.103s5.975.931 9.854.931c7.061 0 10.318-3.646 10.318-10.551 0-6.13-3.104-7.836-9.232-9.389-5.197-1.318-7.447-2.172-7.447-6.284s2.25-5.741 6.826-5.741c3.338 0 8.768.698 8.768.698l.155-3.104zm26.379-.543h-4.112l-7.681 15.827-7.76-15.827h-4.111l10.085 19.939v14.431h3.647v-14.431zm21.724 34.37v-3.413h-13.578v-30.957h-3.725v34.37zm7.369-34.37h-3.801v23.896c0 7.526 3.568 10.939 11.172 10.939 7.682 0 11.25-3.413 11.25-10.939v-23.896h-3.801v24.13c0 5.275-2.25 7.37-7.371 7.37-5.043 0-7.371-2.095-7.371-7.37v-24.13h-.078zm26.071 34.37h3.568v-31.035h.699l8.766 29.794h4.734l8.766-29.794h.699v31.035h3.647v-34.37h-6.672l-8.768 29.482-8.767-29.482h-6.672zm54.853-88.526h1.475v-6.285l1.783 5.82h1.164l1.861-5.82v6.285h1.475v-8.379h-2.018l-1.939 5.818-1.861-5.818h-2.018v8.379h.078zm-6.439-6.905h2.172v6.905h1.551v-6.905h1.863v-1.396h-5.586v1.396z"/></g></svg>